<svg width="22" height="22" viewBox="0 0 22 22" fill="none" xmlns="http://www.w3.org/2000/svg">
<path fill-rule="evenodd" clip-rule="evenodd" d="M11.0001 21.4001C16.7439 21.4001 21.4001 16.7439 21.4001 11.0001C21.4001 5.25634 16.7439 0.600098 11.0001 0.600098C5.25634 0.600098 0.600098 5.25634 0.600098 11.0001C0.600098 16.7439 5.25634 21.4001 11.0001 21.4001ZM9.31934 7.48086C8.81166 6.97318 7.98854 6.97318 7.48086 7.48086C6.97318 7.98854 6.97318 8.81166 7.48086 9.31934L9.16162 11.0001L7.48086 12.6809C6.97318 13.1885 6.97318 14.0117 7.48086 14.5193C7.98854 15.027 8.81166 15.027 9.31934 14.5193L11.0001 12.8386L12.6809 14.5193C13.1885 15.027 14.0117 15.027 14.5193 14.5193C15.027 14.0117 15.027 13.1885 14.5193 12.6809L12.8386 11.0001L14.5193 9.31934C15.027 8.81166 15.027 7.98854 14.5193 7.48086C14.0117 6.97318 13.1885 6.97318 12.6809 7.48086L11.0001 9.16162L9.31934 7.48086Z" fill="#FB7185"/>
</svg>
