<svg width="22" height="22" viewBox="0 0 22 22" fill="none" xmlns="http://www.w3.org/2000/svg">
<path fill-rule="evenodd" clip-rule="evenodd" d="M11.0001 21.4001C16.7439 21.4001 21.4001 16.7439 21.4001 11.0001C21.4001 5.25634 16.7439 0.600098 11.0001 0.600098C5.25634 0.600098 0.600098 5.25634 0.600098 11.0001C0.600098 16.7439 5.25634 21.4001 11.0001 21.4001ZM15.8193 9.31934C16.327 8.81166 16.327 7.98854 15.8193 7.48086C15.3117 6.97318 14.4885 6.97318 13.9809 7.48086L9.7001 11.7616L8.01934 10.0809C7.51165 9.57318 6.68854 9.57318 6.18086 10.0809C5.67318 10.5885 5.67318 11.4117 6.18086 11.9193L8.78086 14.5193C9.28854 15.027 10.1117 15.027 10.6193 14.5193L15.8193 9.31934Z" fill="#2DD4BF"/>
</svg>
